<svg xmlns="http://www.w3.org/2000/svg" xmlns:xlink="http://www.w3.org/1999/xlink" height="200" width="400"><polygon points="0,200 100,100 101,99 100,98 101,99 100,98 99,99 100,100 101,101 102,100 101,101 102,102 103,103 102,102 103,101 102,102 101,103 100,102 101,103 102,104 101,105 102,106 103,105 102,106 103,107 104,106 103,107 102,106 101,107 100,106 99,107 100,108 101,109 102,110 103,109 104,110 105,111 106,110 107,111 108,112 107,111 108,110 109,109 110,110 111,109 110,110 111,109 112,110 111,109 112,108 113,107 114,108 115,109 114,108 113,107 114,106 113,105 114,106 113,107 114,106 113,107 114,108 113,109 112,108 113,109 112,108 111,107 112,106 111,105 110,104 111,103 110,104 109,105 110,106 109,105 110,106 109,105 108,104 109,105 110,104 109,103 110,104 111,103 112,104 111,105 112,104 113,105 112,106 111,107 112,108 113,107 114,108 113,107 112,108 111,107 110,106 109,105 108,104 109,103 110,102 111,103 112,102 111,101 112,100 113,99 112,100 113,101 112,102 113,101 112,102 111,101 110,100 111,99 110,98 111,99 112,98 113,97 114,98 115,97 114,98 115,97 114,96 115,97 116,96 115,97 114,96 115,97 116,98 117,99 116,100 117,99 118,100 117,101 116,102 117,103 118,104 119,105 120,104 119,103 118,104 117,103 118,104 119,103 118,104 119,103 120,102 119,103 118,104 117,103 116,102 117,101 116,102 115,103 116,104 115,105 116,106 117,107 118,108 117,107 118,108 119,107 120,108 119,109 118,110 119,111 120,110 121,109 120,108 121,107 122,108 121,109 120,108 121,107 120,108 121,107 120,106 119,107 118,108 117,107 118,106 117,105 118,104 117,103 116,102 117,101 118,100 119,101 118,100 119,101 120,102 121,103 122,104 121,103 122,102 121,101 122,100 123,101 122,100 121,99 120,100 119,99 120,98 121,97 122,98 123,97 122,96 121,95 122,96 121,97 120,98 121,99 122,98 123,97 124,98 123,99 122,98 123,97 124,96 125,95 126,96 127,97 128,98 127,99 126,100 127,99 126,98 125,97 126,98 127,97 128,98 129,99 128,100 129,101 128,100 129,101 128,100 127,101 126,102 127,103 128,102 129,103 130,102 129,103 128,102 127,101 128,100 129,101 128,100 127,101 128,102 129,103 128,102 127,103 126,102 125,103 124,102 125,101 124,100 123,99 122,98 123,97 122,96 123,97 122,98 123,97 122,98 123,99 122,100 123,99 122,98 121,99 120,98 119,97 118,98 117,97 116,96 117,95 118,96 117,97 118,98 119,97 120,98 119,99 118,100 117,101 116,102 115,103 116,104 117,105 116,106 117,105 118,104 117,105 118,106 117,105 116,104 115,105 116,104 117,105 116,106 115,107 116,108 115,107 116,106 117,105 116,106 115,105 116,106 117,107 118,108 117,109 118,108 119,107 118,106 117,107 116,108 117,107 118,106 119,107 118,106 117,107 118,108 119,107 118,108 119,109 120,108 119,109 118,110 119,111 120,110 121,109 122,110 121,111 122,112 121,111 120,110 121,111 120,110 121,109 122,110 123,111 122,110 121,109 122,108 123,109 124,108 125,107 124,106 123,107 122,106 121,105 122,106 123,107 122,108 121,107 120,106 119,107 120,106 119,105 120,106 121,105 120,106 121,105 122,106 123,105 124,106 125,105 124,106 125,107 126,106 125,107 124,106 125,105 124,106 123,105 122,106 121,105 120,104 121,103 120,102 121,101 120,102 119,103 120,102 119,101 120,102 121,101 120,100 121,99 120,100 121,101 120,100 121,99 120,100 121,99 120,100 121,101 122,100 123,99 122,100 121,101 400,200 " style="fill:rgb(186,28,15);stroke:rgb(86,0,0)"></polygon><polygon points="0,200 100,100 99,99 100,98 101,97 102,96 101,97 102,96 101,97 100,96 99,95 98,94 97,93 96,94 95,95 96,94 95,93 94,94 95,93 96,94 95,95 96,94 95,93 96,94 97,93 98,94 99,95 100,96 99,95 98,94 99,95 98,96 97,97 96,98 95,97 96,98 97,97 96,96 97,95 98,96 99,97 100,98 99,99 100,100 99,99 100,98 101,97 100,98 99,97 98,98 99,99 100,100 101,99 102,98 101,97 102,96 103,95 102,94 103,95 104,94 103,95 104,96 105,97 104,98 105,99 106,100 105,101 104,100 105,101 104,100 105,101 106,102 107,101 106,102 107,103 106,102 105,103 106,104 107,103 106,104 105,103 106,104 105,103 104,102 103,103 104,104 103,105 104,106 103,105 102,106 101,105 100,106 101,105 100,106 99,105 100,104 101,105 100,104 101,103 100,102 99,103 98,104 99,105 100,106 101,105 100,106 101,107 100,106 99,107 100,106 99,105 98,104 97,103 96,104 95,105 96,106 97,107 98,108 99,109 98,110 99,109 100,108 99,109 100,108 101,107 102,108 103,109 104,110 103,109 104,110 105,109 104,110 103,111 102,110 103,111 104,112 105,113 104,112 105,113 104,114 105,113 104,112 105,113 104,112 105,111 104,110 103,109 102,110 103,111 104,110 105,111 106,110 105,111 104,112 103,111 104,110 105,111 104,110 103,111 102,110 103,109 102,108 101,107 102,108 101,109 100,110 101,109 100,108 99,107 100,106 99,107 98,108 99,109 98,110 97,109 98,110 97,111 98,112 99,111 100,110 99,111 98,110 97,109 98,110 97,111 96,110 95,109 96,108 97,109 96,110 97,111 96,112 97,111 98,110 97,111 96,112 97,113 98,114 97,113 96,112 95,113 96,114 95,113 96,114 97,115 96,116 95,117 94,116 95,117 96,118 97,119 96,120 95,121 94,122 93,121 94,120 93,121 92,120 93,119 94,118 95,119 96,118 97,119 98,120 99,121 98,120 99,121 98,122 99,121 98,120 97,121 98,120 99,121 100,120 101,121 102,122 101,123 100,122 99,123 98,122 97,123 96,124 95,123 94,124 95,123 96,122 95,121 94,122 95,123 94,124 93,125 92,124 93,123 94,124 95,125 96,126 95,127 94,126 93,127 92,126 91,125 90,124 89,123 90,124 91,123 92,122 93,123 92,122 91,123 92,124 93,125 94,126 95,127 94,128 95,127 96,126 97,127 96,128 95,127 94,126 93,127 92,126 93,125 94,126 93,127 92,126 93,127 92,126 93,125 94,126 93,127 92,126 93,125 94,124 95,123 94,124 93,125 94,126 93,127 92,128 91,129 92,128 91,129 90,128 91,127 92,128 93,127 92,128 93,127 94,128 93,127 92,128 93,127 94,128 95,127 94,126 93,127 92,126 93,127 94,128 93,129 94,128 93,127 92,128 93,127 92,126 91,127 92,128 93,129 92,130 93,131 94,130 95,131 94,132 95,133 94,134 93,135 92,134 93,135 92,136 91,135 92,134 93,133 94,134 95,135 96,136 95,137 94,136 95,135 94,136 95,135 94,136 95,135 94,134 95,135 96,134 97,135 98,136 97,135 96,134 97,135 98,136 99,137 98,138 97,137 96,138 95,139 96,140 95,139 94,138 95,137 94,136 95,135 96,134 95,133 94,134 95,133 96,134 97,135 96,136 97,135 96,134 97,133 96,132 97,133 96,134 97,133 96,134 97,135 96,136 95,137 96,136 97,137 98,136 99,135 98,136 97,137 96,138 97,139 96,140 95,141 400,200 " style="fill:rgb(246,219,51);stroke:rgb(146,119,0)"></polygon><polygon points="0,200 100,100 99,99 98,100 99,101 98,102 99,101 98,100 97,99 98,100 97,101 98,100 99,101 100,102 101,101 100,102 99,101 100,102 99,101 100,102 99,103 98,102 99,103 100,102 99,103 100,104 99,103 98,104 99,103 100,102 99,103 98,102 97,103 96,104 97,103 96,102 97,101 96,102 97,101 96,102 97,101 98,102 99,101 100,100 99,99 98,100 97,99 96,100 97,99 98,100 97,101 98,102 99,101 100,100 101,99 102,98 103,97 104,96 103,97 104,96 103,95 102,94 101,93 100,94 101,95 102,96 103,97 104,98 103,97 102,96 101,95 102,96 103,97 102,96 103,97 104,96 105,95 106,96 105,97 106,98 107,99 106,100 107,99 106,98 105,97 104,98 105,99 106,98 107,99 108,98 109,99 110,100 109,101 108,100 107,99 106,98 105,99 104,100 105,99 106,100 107,99 108,98 107,99 108,100 109,101 110,102 109,101 108,102 107,101 108,100 109,99 110,100 109,101 110,100 111,101 110,100 109,99 108,100 109,99 108,98 107,99 108,100 107,99 106,100 107,101 106,102 107,103 108,104 107,103 106,104 105,105 104,106 103,105 104,104 105,103 104,102 103,101 102,102 103,103 102,104 101,103 102,102 101,101 100,102 99,101 100,100 99,101 98,100 99,99 100,100 99,99 100,100 99,101 98,102 99,101 100,100 101,101 100,102 99,103 100,104 101,105 100,104 99,103 100,104 99,105 98,106 99,105 100,104 101,105 100,104 99,103 100,102 101,103 102,104 103,103 102,104 103,103 102,102 101,101 100,102 101,103 100,104 101,103 100,104 99,105 98,104 97,105 96,104 97,105 98,106 99,105 98,106 99,107 100,106 99,107 98,106 99,107 98,108 97,107 96,108 97,109 98,110 99,109 100,108 99,109 100,108 101,107 100,106 99,107 100,106 99,107 100,106 99,105 98,106 97,107 96,106 95,107 94,108 93,107 94,106 93,107 92,108 91,109 92,110 91,109 90,110 91,111 92,112 93,113 92,114 91,115 90,114 91,113 92,114 91,113 90,114 91,115 92,114 91,115 92,116 93,117 94,116 95,115 94,114 93,113 94,114 95,115 96,114 95,113 94,114 93,115 92,116 91,115 90,114 89,115 88,116 89,115 90,116 91,115 90,116 89,115 90,116 89,115 88,114 89,113 88,114 87,115 86,116 85,115 86,114 85,115 86,114 87,113 86,114 87,115 88,116 87,117 86,118 87,117 86,116 87,115 86,116 85,115 84,116 83,117 84,116 85,115 86,116 85,115 84,114 85,113 84,114 85,113 86,112 87,111 86,112 85,113 86,112 85,113 84,114 85,115 86,114 87,115 88,116 89,115 88,116 89,117 90,118 91,119 90,120 91,121 90,120 89,121 90,122 91,121 90,122 91,121 92,120 93,119 92,118 93,119 94,120 95,119 96,118 95,117 94,118 95,117 94,116 95,117 96,118 95,119 96,118 97,117 96,118 95,119 96,120 97,119 98,120 97,121 96,122 97,123 96,122 97,121 98,120 99,119 98,118 97,119 98,118 99,117 98,116 99,115 98,116 97,117 98,116 99,117 100,118 101,117 100,118 99,117 98,116 99,115 100,116 99,117 98,118 99,117 98,118 97,119 98,118 97,117 96,116 97,117 98,118 97,119 98,118 97,119 98,118 99,119 100,120 99,119 98,118 97,117 96,116 97,115 98,116 99,117 98,116 99,117 98,118 97,117 98,116 97,115 98,116 99,115 100,114 99,113 98,114 97,113 98,112 97,111 98,110 99,111 400,200 " style="fill:rgb(244,60,182);stroke:rgb(144,0,82)"></polygon><polygon points="0,200 100,100 99,101 100,100 101,99 102,98 101,99 102,100 103,101 102,100 101,99 102,98 103,99 102,100 103,101 104,100 103,101 104,102 105,101 106,102 105,101 106,102 107,103 106,102 105,103 106,102 107,103 108,104 107,103 108,102 109,101 110,100 109,101 108,102 109,101 108,100 109,101 108,102 109,103 110,102 111,103 112,104 111,103 110,104 109,103 108,102 107,101 108,102 107,103 108,104 109,105 108,106 107,105 108,104 109,105 110,106 109,107 108,106 107,105 106,104 105,105 106,106 105,105 106,104 107,103 108,102 107,101 108,102 109,103 108,104 107,105 108,106 109,105 108,106 107,105 106,104 105,103 106,102 107,101 108,102 107,103 108,104 107,103 108,104 107,105 106,106 105,107 104,106 105,107 104,108 103,107 104,106 103,105 104,106 103,107 102,106 101,105 102,104 103,103 104,102 103,103 102,102 103,101 102,100 103,99 104,98 105,97 106,96 107,97 108,96 107,97 108,98 107,97 106,96 107,97 106,96 105,95 104,96 103,95 102,94 103,95 104,96 103,97 102,96 101,95 100,96 99,97 100,96 101,95 100,94 99,93 100,92 99,93 98,94 97,95 96,96 95,95 96,94 95,95 94,96 93,95 94,94 95,93 96,92 97,91 96,92 97,91 96,90 97,89 96,90 97,89 98,90 97,91 96,92 97,93 96,92 97,93 96,92 95,91 96,92 95,91 94,90 93,91 92,92 93,91 94,92 95,91 96,92 97,93 96,92 97,91 96,92 95,93 96,92 97,91 96,92 95,91 94,90 95,89 94,88 93,87 94,88 95,87 96,86 95,87 96,88 95,87 96,88 97,89 96,88 97,89 96,90 97,89 96,88 95,89 94,88 95,87 94,88 95,89 96,90 95,91 96,92 95,93 96,94 97,95 96,94 97,93 96,94 95,93 94,92 93,91 94,90 95,89 94,88 95,89 94,90 95,91 94,90 93,91 94,92 95,93 96,94 95,95 96,96 95,97 96,98 95,97 94,96 95,95 94,94 93,93 94,92 93,91 92,92 93,91 92,92 93,91 92,90 93,89 92,88 91,89 92,90 91,91 92,90 91,89 92,88 91,89 92,90 91,91 90,92 89,93 90,92 91,91 90,92 91,91 92,90 91,91 90,90 89,91 90,90 91,91 90,90 91,91 92,92 91,93 90,92 91,91 92,92 93,91 92,90 91,91 92,90 93,89 94,88 93,89 94,88 95,87 96,88 95,87 94,88 95,89 94,88 95,87 94,88 95,87 96,86 97,87 96,86 97,85 98,86 97,87 98,88 99,87 98,88 99,89 100,88 99,87 100,88 101,89 102,88 103,87 104,86 103,87 104,88 103,87 104,86 105,87 106,86 105,87 104,86 105,87 106,86 105,87 104,88 103,87 104,88 105,87 106,88 105,87 106,86 107,85 106,86 107,85 108,86 109,85 108,84 109,85 110,84 109,83 110,84 109,85 108,86 109,85 108,84 107,83 108,82 107,83 108,82 109,81 108,80 107,81 108,82 107,83 106,84 107,83 108,84 107,83 106,84 107,85 106,86 107,87 108,86 107,87 106,88 107,89 106,90 105,89 104,90 105,91 106,92 105,93 106,92 107,91 106,92 105,93 106,94 105,95 104,94 103,95 104,94 103,95 104,94 103,93 104,92 105,91 106,92 105,91 106,92 107,93 106,94 107,95 106,94 105,95 104,94 103,93 102,94 103,95 102,96 101,95 100,94 99,93 100,94 99,93 100,92 99,93 100,94 99,93 98,94 99,93 100,94 101,93 400,200 " style="fill:rgb(251,3,139);stroke:rgb(151,0,39)"></polygon><polygon points="0,200 100,100 101,101 100,100 99,101 98,100 99,99 98,98 97,99 96,98 97,99 98,100 97,99 98,98 99,99 100,98 101,99 100,98 101,97 100,96 101,95 102,94 101,93 100,92 99,93 98,94 99,93 98,94 97,95 98,94 99,93 100,92 99,91 98,92 99,93 98,94 99,93 100,92 99,91 98,92 99,91 98,92 99,91 100,90 101,89 102,90 103,91 102,92 103,93 104,94 103,93 102,92 103,91 104,92 103,93 102,94 103,95 102,94 103,93 102,94 103,95 104,96 105,97 106,96 107,95 108,94 107,93 106,94 105,95 106,96 105,97 106,98 105,97 106,96 105,97 104,98 105,99 104,98 103,97 102,96 103,97 102,98 101,99 102,100 103,101 102,100 101,101 100,100 99,99 98,98 99,99 98,98 99,99 98,98 97,99 96,98 95,99 96,98 97,97 96,96 97,97 98,96 97,95 98,96 97,97 96,98 95,99 94,98 93,97 92,96 93,95 92,94 91,93 92,94 91,93 90,92 89,91 88,90 87,91 86,92 85,91 84,90 85,91 86,92 87,91 88,92 87,91 88,92 89,93 88,92 87,91 86,92 87,91 86,90 87,91 86,92 87,93 86,94 85,93 84,92 83,91 84,90 85,91 86,92 87,91 88,92 87,93 88,92 89,91 90,92 89,93 88,92 89,91 90,92 91,91 90,90 89,89 90,90 89,89 88,90 89,91 88,92 89,91 90,90 91,89 90,88 91,87 90,86 91,87 92,86 93,87 92,88 91,89 90,88 91,89 90,88 89,89 90,90 91,89 92,88 93,87 92,86 91,87 90,88 89,87 90,88 89,87 90,86 89,87 88,86 87,85 86,86 87,85 86,86 87,87 86,86 85,87 86,88 85,89 84,88 85,89 86,90 87,89 88,90 89,91 90,92 91,91 90,92 91,93 92,94 91,93 92,94 93,95 92,94 91,95 92,94 91,95 92,94 91,95 90,94 91,95 90,94 91,93 90,94 91,95 90,94 89,93 90,94 89,93 90,94 91,93 90,92 89,91 90,90 91,91 92,90 93,91 92,90 91,91 92,90 93,89 94,88 93,87 92,88 91,89 92,90 91,91 92,90 93,89 92,90 91,89 90,88 91,89 92,90 93,91 92,90 93,91 92,92 93,91 92,90 93,89 94,90 95,91 96,90 95,89 96,90 95,91 94,92 95,93 96,94 97,95 96,94 95,93 96,94 97,93 96,92 97,93 98,92 97,93 98,94 99,93 98,94 97,93 98,92 97,93 98,94 97,93 96,94 97,95 96,94 97,93 98,94 99,93 100,92 101,93 100,94 101,95 102,96 101,97 100,98 99,99 100,98 101,97 100,98 101,99 100,98 101,99 102,98 101,99 100,98 101,97 102,96 103,97 104,96 103,97 102,98 101,99 100,98 101,97 102,96 103,97 102,98 101,99 102,98 101,99 100,98 99,97 98,98 99,97 98,96 97,97 96,96 97,95 98,94 99,95 98,94 99,93 100,92 99,91 98,90 97,89 96,88 95,89 94,88 93,87 92,88 91,87 92,86 91,85 90,84 91,85 92,84 93,83 92,84 93,85 94,86 95,87 94,88 93,87 94,88 95,89 94,88 93,89 92,88 91,89 90,88 89,89 90,90 91,89 90,88 91,87 92,86 93,87 94,86 95,87 94,86 93,87 92,86 91,85 90,84 89,85 88,86 89,85 88,86 89,87 88,88 87,89 88,90 87,91 88,92 89,93 88,94 89,93 90,94 89,93 88,94 87,95 88,94 89,93 90,94 89,93 400,200 " style="fill:rgb(190,70,230);stroke:rgb(90,0,130)"></polygon><polygon points="0,200 100,100 99,101 100,102 101,101 100,100 99,101 98,100 99,101 100,100 101,99 102,98 101,99 102,100 101,101 102,100 101,99 102,98 103,99 104,98 105,97 106,98 105,97 106,96 107,97 108,98 107,99 106,98 105,99 104,98 103,97 102,96 103,95 104,96 105,95 106,96 107,97 108,96 109,97 110,96 109,97 110,98 109,97 110,98 109,97 110,96 111,95 112,94 111,95 112,94 113,95 112,94 111,93 112,94 113,93 114,94 113,95 112,94 111,95 110,94 109,95 108,96 107,97 106,98 107,99 108,100 107,101 106,100 107,101 106,102 105,101 106,100 105,101 106,100 107,99 108,98 107,99 108,100 109,99 110,98 111,99 112,100 113,99 112,98 113,97 112,96 111,95 110,94 111,93 112,92 113,93 114,92 115,93 114,92 113,91 112,90 111,89 110,90 109,91 110,90 111,89 110,90 111,89 112,90 113,91 114,92 115,91 116,90 115,91 116,90 117,89 116,90 117,91 118,90 117,89 116,88 117,87 116,88 115,87 116,86 117,87 116,88 117,87 116,88 117,89 118,88 117,87 118,86 119,87 118,88 117,87 116,86 115,87 116,86 115,85 114,86 113,87 114,88 115,89 116,88 117,87 116,88 115,89 116,90 117,89 116,90 115,89 116,90 117,89 116,90 115,89 114,90 113,89 114,88 113,87 114,88 113,87 112,88 111,89 110,88 111,87 112,88 111,87 112,86 113,87 112,86 111,85 110,86 109,87 108,88 109,89 108,90 107,91 106,92 105,91 106,90 105,89 104,88 103,89 102,90 103,89 104,88 103,89 104,88 105,89 106,90 105,91 106,92 107,93 108,92 109,93 108,92 107,91 108,90 109,91 110,90 111,91 110,92 109,93 108,92 109,91 108,90 107,89 106,88 105,87 104,88 103,87 102,88 101,87 100,86 101,87 102,88 101,87 102,86 103,85 102,86 101,87 102,86 101,87 100,86 99,87 98,88 97,87 96,88 95,89 94,88 95,89 94,90 93,89 92,90 93,89 94,88 93,87 94,86 95,87 96,86 97,87 98,86 97,85 96,84 95,85 96,84 95,83 96,82 95,83 94,84 93,85 92,86 93,87 92,88 93,89 92,88 93,87 94,86 93,85 94,84 95,85 96,84 97,83 96,84 97,85 98,86 97,85 98,86 99,87 98,88 97,87 98,86 97,87 98,88 99,89 98,88 97,87 98,88 99,87 100,88 99,89 98,90 99,91 98,90 99,89 98,90 99,91 98,92 97,93 96,92 97,93 98,92 99,93 98,94 97,95 98,96 97,95 96,96 95,95 94,94 95,93 96,92 97,91 96,90 97,91 98,90 97,91 96,90 97,91 96,92 95,91 94,92 95,91 96,92 95,91 94,92 93,91 94,90 93,89 94,90 93,89 94,88 95,89 96,88 97,89 96,90 97,89 98,88 99,87 98,86 99,87 98,88 97,87 96,88 95,89 96,90 95,89 94,90 93,89 94,88 95,89 94,90 95,91 96,92 95,93 96,94 95,93 94,94 93,95 92,94 93,95 92,94 93,95 94,96 95,97 96,98 97,99 96,98 95,97 94,98 95,99 96,98 97,99 96,98 97,97 98,96 97,97 98,96 97,95 96,94 95,93 96,94 97,95 96,96 97,95 96,94 97,93 96,92 95,93 96,92 97,91 96,92 95,91 94,90 93,91 92,92 93,91 92,92 93,91 94,90 95,89 96,90 95,91 94,90 93,91 92,92 93,91 94,92 95,93 94,94 95,95 96,96 97,97 96,96 95,97 400,200 " style="fill:rgb(112,114,209);stroke:rgb(12,14,109)"></polygon><polygon points="0,200 100,100 99,99 100,100 101,101 100,102 99,103 100,104 101,103 100,104 101,103 100,102 101,103 102,104 101,103 100,102 101,101 100,100 99,101 98,102 97,103 96,104 95,105 96,104 95,103 94,104 93,103 94,104 93,103 92,104 93,103 94,104 93,103 94,104 95,103 94,102 95,103 94,104 93,103 94,104 93,105 92,104 93,105 94,104 95,105 96,106 95,107 96,108 97,109 98,108 97,109 98,108 97,107 96,106 95,107 94,106 95,107 94,106 95,105 94,106 95,107 94,106 93,107 92,108 91,109 90,110 91,109 92,108 91,107 92,108 91,107 92,108 91,109 92,110 93,111 92,112 91,113 90,112 89,111 88,110 89,109 88,108 87,109 88,110 87,111 86,112 85,113 86,114 87,113 86,112 85,113 86,112 87,111 86,112 87,111 86,110 85,111 86,112 85,113 84,114 85,113 86,112 87,113 88,114 89,113 88,112 87,113 88,112 89,111 90,110 89,111 88,110 87,111 86,110 87,111 86,110 85,109 84,108 85,109 84,108 83,109 82,110 81,111 80,112 79,113 78,114 79,113 80,114 81,113 82,114 81,113 82,114 83,113 82,114 83,115 84,114 83,115 84,116 85,115 86,116 85,115 86,116 87,117 88,116 89,115 88,114 87,113 86,112 85,111 84,112 85,111 86,112 85,113 86,114 85,113 86,112 85,113 84,114 85,115 86,116 85,115 84,116 83,117 84,118 85,119 84,118 85,117 84,116 83,117 84,118 85,117 84,116 83,115 84,116 83,117 82,118 81,119 80,118 79,117 80,116 81,117 82,118 83,119 82,120 81,119 80,120 81,119 80,120 79,121 78,122 79,121 80,120 81,121 82,120 81,119 80,118 79,119 80,120 81,121 80,122 79,121 78,122 77,123 76,124 75,123 74,122 73,123 72,122 73,123 74,124 73,125 72,126 73,125 74,126 75,125 74,126 73,125 72,126 71,127 70,128 69,127 70,128 71,127 72,126 71,127 70,128 71,129 70,128 69,127 68,128 69,127 68,128 69,129 70,130 71,131 70,130 71,129 70,128 71,127 72,128 73,129 74,130 75,129 74,128 73,127 72,126 71,125 72,126 73,125 72,126 71,125 70,126 71,127 72,128 73,129 72,128 73,129 72,128 71,129 72,128 71,129 70,128 69,127 68,128 69,129 68,128 67,127 68,128 69,129 68,128 69,129 68,128 67,127 68,126 67,125 66,126 65,125 66,124 65,123 66,124 65,125 66,126 65,127 64,126 65,127 66,128 67,129 68,128 69,127 68,128 69,129 68,130 67,131 68,130 69,131 68,132 69,131 70,132 71,131 72,132 73,131 74,130 73,129 72,128 71,129 70,128 71,129 72,128 71,129 70,128 71,127 70,128 71,127 70,126 71,127 72,126 73,127 72,126 73,127 74,126 75,125 74,124 75,123 74,124 75,123 74,122 73,123 72,124 71,125 72,124 73,123 72,124 73,125 74,124 73,125 72,126 71,125 72,124 73,123 74,124 75,125 74,126 75,127 74,126 73,125 72,126 71,125 72,126 73,127 74,126 75,127 76,128 75,127 74,126 75,127 76,128 77,127 78,126 77,127 76,126 75,125 76,126 75,125 76,124 77,123 78,122 79,123 78,124 77,123 78,124 79,123 80,124 81,125 82,124 81,125 82,126 83,127 82,126 81,125 82,126 81,127 82,126 81,127 80,128 81,127 80,126 79,125 78,124 77,123 78,124 79,123 80,124 81,123 82,122 81,123 82,122 81,123 82,124 83,123 84,122 83,121 400,200 " style="fill:rgb(42,37,253);stroke:rgb(0,0,153)"></polygon><polygon points="0,200 100,100 99,101 100,102 101,103 100,102 99,103 100,104 99,105 100,106 101,107 100,108 99,109 100,108 101,107 100,108 99,107 100,108 101,107 100,108 99,107 98,106 99,107 98,108 99,107 98,106 99,107 98,108 99,107 100,108 101,109 102,108 101,109 100,108 101,107 100,108 101,109 102,108 103,107 104,106 105,105 106,104 107,103 106,102 105,101 104,102 103,103 102,102 103,103 102,104 103,103 102,104 101,105 100,104 99,103 98,104 97,103 96,104 97,103 96,102 95,103 96,104 95,103 94,104 95,105 94,104 95,103 96,102 95,101 94,102 95,103 96,102 95,101 94,102 93,101 94,100 93,101 92,100 93,101 94,100 95,99 94,100 93,101 94,102 93,103 92,102 93,101 94,100 93,99 94,100 93,101 92,100 93,101 92,102 91,103 90,104 91,103 90,102 89,103 90,104 91,103 90,102 89,101 90,100 91,101 92,102 93,101 94,102 93,103 94,102 93,103 94,102 93,103 92,102 93,103 94,102 95,103 96,104 97,103 96,102 95,101 96,100 97,99 96,98 97,99 96,100 95,101 94,100 93,101 94,100 95,101 94,100 93,101 94,102 95,101 96,102 97,101 98,102 97,103 98,102 99,101 100,102 101,101 100,100 101,101 102,100 103,101 104,100 105,99 106,100 105,101 104,100 103,101 104,102 103,101 102,100 101,99 100,98 99,99 98,100 97,101 96,100 97,101 98,102 99,101 100,100 101,99 102,100 103,101 104,100 103,101 104,100 105,101 106,100 107,99 106,100 105,101 106,100 105,99 106,100 107,101 106,100 107,101 106,100 107,99 108,100 107,99 108,98 109,99 108,100 109,101 108,100 107,101 108,100 107,99 106,100 105,101 104,100 103,101 104,100 105,99 104,98 103,99 104,98 105,97 104,96 105,95 106,94 105,93 106,94 107,93 106,94 107,93 108,94 107,95 106,96 105,95 104,96 105,95 106,94 105,95 106,94 107,95 106,96 107,95 106,96 107,97 108,98 107,97 106,96 105,97 106,96 105,97 106,98 105,99 106,98 107,97 106,96 105,95 106,96 107,97 108,98 109,97 110,96 111,97 110,96 109,95 108,94 109,95 108,96 107,95 106,96 105,95 104,96 105,97 104,98 103,97 104,96 103,95 104,94 105,93 106,92 105,93 104,92 105,93 104,94 103,93 104,92 105,91 104,92 103,91 104,90 103,89 102,90 103,91 104,92 105,91 104,92 105,93 104,92 105,91 106,90 105,91 106,90 105,91 104,90 105,89 104,90 105,89 104,88 105,89 104,88 105,87 106,88 105,87 106,88 107,89 106,88 105,89 104,88 103,89 104,88 105,87 106,86 105,85 104,84 103,83 102,84 101,83 100,84 99,85 100,84 99,83 98,84 99,83 100,84 99,85 100,84 101,83 100,84 99,85 100,84 101,85 102,86 103,87 104,86 103,85 104,84 105,83 104,84 103,83 104,82 103,83 104,82 103,83 104,84 105,83 106,82 107,83 106,84 107,83 106,82 107,81 108,82 109,81 110,80 111,79 110,78 109,77 110,76 109,75 110,74 111,75 110,76 109,75 108,74 109,75 108,76 107,75 108,74 109,73 108,72 109,73 108,72 109,73 110,72 109,73 108,72 109,71 108,70 107,69 106,68 105,67 104,66 103,65 104,64 103,65 102,66 103,67 102,68 101,67 102,68 103,67 104,66 103,67 102,68 101,69 102,68 101,69 100,70 101,71 100,70 99,69 100,70 101,71 100,72 99,71 100,70 101,71 102,70 103,71 400,200 " style="fill:rgb(211,195,153);stroke:rgb(111,95,53)"></polygon><polygon points="0,200 100,100 99,99 98,100 97,99 98,98 99,97 98,96 97,97 96,96 95,97 94,96 95,95 94,94 95,93 96,94 95,93 96,92 95,93 96,92 97,93 96,92 97,91 96,90 97,91 98,90 97,91 98,92 99,91 100,92 101,93 102,94 101,93 100,92 101,91 102,92 103,91 102,92 103,91 102,90 101,89 100,88 101,89 102,88 103,89 104,90 105,91 106,90 105,89 104,88 103,89 102,90 103,91 104,92 105,93 106,92 107,93 106,94 105,95 104,94 105,95 104,96 105,95 106,94 105,93 104,92 105,93 104,94 105,93 104,92 103,91 104,92 105,93 104,94 105,95 104,96 103,95 102,96 103,95 102,96 101,95 100,94 99,93 100,92 99,91 98,90 99,89 100,88 101,89 100,90 99,91 98,90 97,89 96,88 95,87 94,88 93,89 92,90 93,91 94,92 93,93 92,94 93,95 94,94 95,95 96,94 95,93 94,92 93,93 92,94 91,95 90,94 89,95 90,96 91,97 92,96 93,95 94,94 93,95 92,96 91,95 90,96 89,97 90,98 91,97 90,98 89,97 88,96 87,97 86,98 87,97 88,98 87,97 88,96 89,95 88,96 87,97 88,96 87,95 86,96 85,97 86,98 85,99 84,100 85,101 86,102 85,103 84,102 85,101 84,100 83,99 84,98 85,97 84,98 85,99 86,100 85,99 86,100 85,99 84,100 83,99 84,100 85,101 84,100 85,101 86,100 87,99 86,100 87,99 86,100 87,101 88,100 87,101 86,102 85,103 84,102 85,101 86,102 87,101 88,102 89,101 90,102 89,101 88,102 89,103 90,102 91,103 92,102 93,103 92,104 91,103 90,104 89,105 88,106 87,105 88,106 87,105 88,106 89,105 88,104 87,105 86,104 87,105 86,106 87,105 88,106 87,107 88,108 89,109 90,108 89,107 88,108 87,107 86,106 87,107 86,106 85,107 86,106 87,107 86,106 87,105 86,106 85,107 86,106 85,107 86,108 85,109 86,108 85,109 84,108 85,107 84,108 85,107 86,108 85,107 86,106 87,107 88,108 87,109 86,108 87,109 86,108 87,107 86,108 87,109 88,108 87,107 86,108 85,107 86,108 85,109 84,108 83,109 82,110 81,111 80,110 79,111 78,112 77,111 78,112 77,113 76,112 75,113 74,114 75,113 74,112 75,111 74,112 75,111 76,110 75,109 76,108 75,109 74,108 75,109 74,108 73,107 72,106 73,105 74,106 73,107 72,106 71,107 72,106 71,107 72,106 73,107 72,106 73,105 72,106 71,105 72,106 73,105 74,104 75,103 74,102 75,101 76,100 77,99 78,98 79,99 80,98 79,99 80,98 81,97 80,98 81,97 82,98 81,97 82,96 81,95 82,96 81,97 80,98 81,99 80,98 81,97 80,98 79,97 78,98 79,97 80,98 79,99 78,100 77,99 76,98 77,99 76,100 75,99 76,98 75,97 74,98 73,97 74,98 73,97 72,96 73,97 74,96 75,97 76,96 75,95 74,94 73,93 72,94 71,95 70,94 69,93 70,92 71,91 70,90 69,91 70,92 71,91 70,90 71,91 70,90 69,91 70,90 69,89 70,88 71,87 72,88 71,89 70,88 71,87 72,88 73,87 74,88 75,89 74,90 73,89 72,90 73,89 72,90 73,91 72,92 71,91 72,92 71,91 72,92 71,91 72,92 71,91 72,92 73,91 74,92 75,93 76,94 77,93 78,92 77,93 78,92 79,93 78,92 77,93 76,94 75,95 76,94 75,95 76,94 77,93 400,200 " style="fill:rgb(151,122,89);stroke:rgb(51,22,0)"></polygon><polygon points="0,200 100,100 101,101 102,100 101,99 102,100 103,99 102,100 103,101 102,102 101,103 102,102 101,103 100,104 99,103 100,102 99,101 98,100 99,99 100,100 101,101 102,100 103,101 104,102 103,103 102,104 101,103 100,104 101,105 102,106 103,105 104,104 105,105 104,106 105,107 104,106 105,105 106,106 107,107 108,106 109,105 110,104 109,103 110,104 109,105 108,104 109,105 108,106 107,105 108,104 107,105 106,106 107,107 106,108 105,109 104,110 103,109 102,110 101,111 102,110 101,109 100,108 99,107 100,108 101,107 102,106 101,107 100,106 101,107 102,106 103,107 104,106 105,107 104,108 103,107 104,106 105,105 104,104 105,103 104,102 103,101 102,100 103,101 104,100 105,101 104,102 103,101 104,102 105,103 106,102 107,103 106,104 105,103 104,102 105,101 104,100 103,101 104,100 103,99 104,100 103,99 102,98 103,97 102,96 101,95 102,94 101,95 100,94 101,95 102,94 103,93 104,94 103,95 104,96 105,95 106,94 107,95 106,94 105,95 106,96 105,97 106,96 105,95 104,96 105,95 106,96 105,97 104,98 105,97 106,98 105,99 106,100 107,99 106,100 105,101 104,100 105,99 106,98 105,99 104,100 105,99 106,100 107,101 106,102 105,103 104,102 103,103 102,102 103,103 102,102 103,103 102,104 101,103 100,104 99,103 100,102 101,101 102,100 103,99 102,100 103,99 104,100 105,99 106,98 105,97 104,96 105,97 106,98 107,97 108,98 109,97 110,96 109,97 110,96 111,97 110,96 111,97 112,98 113,99 112,100 113,101 114,102 113,101 112,102 113,101 112,100 113,101 112,100 111,101 110,100 111,101 112,100 113,101 112,100 113,101 112,102 113,103 112,102 113,103 114,102 113,101 114,100 113,101 112,100 113,101 114,102 113,101 112,100 111,99 110,100 109,101 110,100 109,101 110,100 109,101 110,102 109,101 108,102 107,101 108,102 107,103 106,104 107,103 106,104 105,103 104,104 105,103 106,102 107,103 106,104 105,103 104,102 105,103 106,104 107,105 106,104 107,103 106,102 105,101 106,102 105,103 104,102 103,101 104,100 105,99 106,98 107,99 108,98 109,97 110,96 111,97 112,96 111,97 110,98 111,99 110,98 109,97 110,96 109,97 108,96 107,95 106,96 105,95 106,94 107,93 106,92 105,93 106,92 107,93 108,92 107,93 108,92 109,91 108,90 107,89 108,90 109,91 110,92 109,91 108,90 107,91 106,90 105,89 106,88 107,89 108,90 109,89 110,90 109,91 110,90 109,91 110,92 109,93 110,94 109,95 108,94 109,93 108,92 109,91 108,92 109,91 110,90 109,91 108,90 107,89 108,88 107,87 106,86 105,87 104,88 105,89 106,90 105,91 104,92 103,91 104,90 105,89 104,88 105,87 104,86 105,87 106,88 105,87 104,86 105,87 104,88 105,89 104,88 103,87 102,88 103,87 102,86 101,87 102,86 103,87 104,88 105,87 104,86 103,87 102,86 101,87 102,88 101,87 100,88 99,87 100,88 101,89 102,88 101,89 102,88 103,87 104,86 105,87 106,88 107,89 106,90 105,91 106,90 107,91 106,90 107,89 106,90 105,89 106,88 105,89 104,88 103,87 102,86 103,87 104,88 103,87 104,88 105,87 104,88 105,89 104,90 105,91 104,92 103,93 104,92 103,91 102,90 103,91 102,90 101,89 102,90 101,89 102,88 103,89 102,90 103,91 102,90 101,89 102,88 101,89 102,90 103,89 102,88 101,87 102,86 103,85 400,200 " style="fill:rgb(145,131,208);stroke:rgb(45,31,108)"></polygon></svg>